# xmcd CD database file
#
# Track frame offsets:
#	150
#	17861
#	33503
#	45315
#	65555
#	80044
#	98973
#	119457
#	138304
#	155567
#	173797
#	185572
#	207999
#	225916
#	238036
#	256432
#	267860
#	286466
#	296398
#	311820
#
# Disc length: 4399 seconds
#
# Revision: 0
# Processed by: cddbd v1.5.2PL0 Copyright (c) Steve Scherf et al.
# Submitted via: CDex 1.70beta2
#
DISCID=24112d14
DTITLE=Leila Portnoj - Sings!
DYEAR=1986
DGENRE=Jazz
TTITLE0=Our Love Is Here To Stay
TTITLE1=Lullaby of Birdland
TTITLE2=I'm Gonna Sit Right Down and Write Myself a Letter
TTITLE3=These Foolish Things
TTITLE4=Bye Bye Blackbird
TTITLE5=Cry Me a River
TTITLE6=Caravn
TTITLE7=The Man I Love
TTITLE8=That Old Black Magic
TTITLE9=Quiet Nights and Quiet Stars
TTITLE10=It Don't Mean a Thing
TTITLE11=Do You Know What It Means
TTITLE12=East of the Sun
TTITLE13=After You've Gone
TTITLE14=But Beautiful
TTITLE15=Just One of Those Things
TTITLE16=Summertime
TTITLE17=Did You Mean It
TTITLE18=Autumn Leaves
TTITLE19=Your Touch
EXTD=YEAR: 1986
EXTT0=
EXTT1=
EXTT2=
EXTT3=
EXTT4=
EXTT5=
EXTT6=
EXTT7=
EXTT8=
EXTT9=
EXTT10=
EXTT11=
EXTT12=
EXTT13=
EXTT14=
EXTT15=
EXTT16=
EXTT17=
EXTT18=
EXTT19=
PLAYORDER=
